<?xml version="1.0"?>
<svg version="1.1" xmlns="http://www.w3.org/2000/svg" width="200px" height="78px" style=""><path fill="#000000" d="M51.34033203125,57.3251953125q0-0.76904296875,0.52734375-0.977783203125t1.142578125-0.208740234375q1.07666015625,0,1.82373046875,0.966796875t1.417236328125,2.120361328125t1.329345703125,2.120361328125t1.56005859375,0.966796875q0.68115234375,0,1.241455078125-0.340576171875t0.966796875-0.85693359375t0.626220703125-1.16455078125t0.2197265625-1.285400390625q0-1.669921875-0.670166015625-3.44970703125t-1.7138671875-3.66943359375t-2.208251953125-3.8671875t-2.197265625-4.02099609375t-1.7138671875-4.163818359375t-0.68115234375-4.273681640625q0-3.22998046875,1.93359375-5.009765625t5.09765625-1.77978515625q1.07666015625,0,2.17529296875,0.3076171875t2.021484375,0.9228515625t1.505126953125,1.51611328125t0.582275390625,2.109375q0,0.3955078125-0.582275390625,0.516357421875t-0.845947265625,0.120849609375q-0.3955078125,0-0.85693359375-0.098876953125t-0.59326171875-0.538330078125t-0.37353515625-1.0107421875t-0.604248046875-1.065673828125t-0.85693359375-0.85693359375t-1.087646484375-0.362548828125q-0.98876953125,0-1.680908203125,0.406494140625t-1.12060546875,1.087646484375t-0.63720703125,1.527099609375t-0.208740234375,1.746826171875q0,2.109375,0.72509765625,4.251708984375t1.8017578125,4.2626953125t2.340087890625,4.185791015625t2.340087890625,4.02099609375t1.8017578125,3.8232421875t0.72509765625,3.53759765625q0,1.494140625-0.703125,2.52685546875t-1.77978515625,1.680908203125t-2.384033203125,0.94482421875t-2.559814453125,0.296630859375q-1.34033203125,0-2.74658203125-0.538330078125t-2.52685546875-1.483154296875t-1.845703125-2.208251953125t-0.72509765625-2.735595703125z M71.108471679688,53.30419921875q0-1.494140625,0.406494140625-2.87841796875t1.219482421875-2.471923828125t2.032470703125-1.73583984375t2.823486328125-0.648193359375q0.98876953125,0,2.186279296875,0.296630859375t2.252197265625,0.87890625t1.7578125,1.483154296875t0.703125,2.0654296875q0,0.54931640625-0.186767578125,0.8349609375t-0.758056640625,0.28564453125l-0.24169921875-0.0439453125q0.63720703125,1.7138671875,1.0986328125,3.515625t0.90087890625,3.603515625q0.17578125,0.3515625,0.263671875,0.626220703125t0.087890625,0.538330078125q0,0.3515625-0.19775390625,0.582275390625t-0.516357421875,0.340576171875t-0.6591796875,0.15380859375t-0.604248046875,0.0439453125q-0.94482421875,0-1.417236328125-0.32958984375t-0.68115234375-0.90087890625t-0.252685546875-1.285400390625t-0.17578125-1.439208984375q-0.263671875,0.85693359375-0.692138671875,1.669921875t-1.0107421875,1.461181640625t-1.373291015625,1.03271484375t-1.77978515625,0.384521484375q-1.4501953125,0-2.43896484375-0.8349609375t-1.593017578125-2.054443359375t-0.87890625-2.603759765625t-0.274658203125-2.57080078125z M74.228588867188,52.99658203125q0,0.81298828125,0.10986328125,1.7138671875t0.362548828125,1.77978515625t0.648193359375,1.658935546875t0.98876953125,1.373291015625q1.07666015625-1.16455078125,1.593017578125-2.83447265625t0.9228515625-3.218994140625t0.9228515625-2.65869140625t1.593017578125-1.109619140625q0.68115234375,0,1.142578125,0.24169921875q-0.2197265625-0.54931640625-0.72509765625-1.065673828125t-1.131591796875-0.94482421875t-1.29638671875-0.703125t-1.263427734375-0.274658203125q-0.17578125,0-0.406494140625,0.054931640625t-0.362548828125,0.010986328125q-0.90087890625,0.263671875-1.483154296875,0.911865234375t-0.94482421875,1.527099609375t-0.516357421875,1.8017578125t-0.15380859375,1.73583984375z M90.173486328125,53.4140625l0-0.63720703125q0-0.791015625,0.0439453125-1.494140625q0.0439453125-0.98876953125,0.0439453125-1.6259765625q0-0.3515625,0.0439453125-0.802001953125t0.2197265625-0.714111328125q0.2197265625-0.2197265625,0.516357421875-0.450439453125t0.648193359375-0.230712890625q1.12060546875,0,1.7578125,0.252685546875t0.68115234375,1.043701171875l0.087890625,0.68115234375q0.3955078125-0.94482421875,1.0546875-2.340087890625t1.527099609375-2.65869140625t1.95556640625-2.1533203125t2.296142578125-0.889892578125q1.12060546875,0,1.845703125,1.0546875t1.153564453125,2.691650390625t0.604248046875,3.6474609375t0.24169921875,3.944091796875t0.087890625,3.526611328125t0.15380859375,2.406005859375q0.087890625,0.68115234375,0.296630859375,1.439208984375t0.208740234375,1.395263671875q0,0.17578125-0.252685546875,0.340576171875t-0.538330078125,0.274658203125t-0.582275390625,0.17578125t-0.428466796875,0.06591796875q-0.85693359375,0-1.219482421875-1.285400390625t-0.450439453125-3.218994140625t-0.087890625-4.185791015625t-0.15380859375-4.185791015625t-0.626220703125-3.218994140625t-1.505126953125-1.329345703125q-0.94482421875,0-1.95556640625,1.219482421875t-1.73583984375,3.240966796875q-0.703125,2.021484375-0.966796875,4.59228515625q-0.087890625,0.81298828125-0.087890625,1.6259765625q0,1.77978515625,0.37353515625,3.5595703125q0.0439453125,0.3076171875-0.252685546875,0.46142578125t-0.736083984375,0.24169921875t-0.889892578125,0.10986328125t-0.692138671875,0.02197265625q-0.85693359375,0-1.373291015625-0.604248046875t-0.802001953125-1.549072265625t-0.384521484375-2.120361328125t-0.120849609375-2.318115234375z M110.13937988281,62.22509765625l0.46142578125-0.54931640625q-0.087890625-3.69140625-0.19775390625-7.36083984375t-0.10986328125-7.294921875q0-4.50439453125,0.538330078125-8.712158203125t1.065673828125-8.624267578125q0.0439453125-0.263671875,0.252685546875-0.428466796875t0.516357421875-0.274658203125t0.626220703125-0.15380859375t0.582275390625-0.0439453125q0.3515625,0,0.87890625,0.1318359375t1.0546875,0.76904296875q0,0.2197265625,0.032958984375,0.384521484375t0.032958984375,0.384521484375q0,1.669921875-0.450439453125,3.58154296875t-0.604248046875,3.66943359375q-0.17578125,2.1533203125-0.24169921875,4.2626953125t-0.06591796875,4.28466796875l0.0439453125,1.93359375q0.439453125-0.54931640625,1.25244140625-1.40625t1.7578125-1.658935546875t1.8896484375-1.373291015625t1.7138671875-0.5712890625q1.16455078125,0,1.614990234375,0.6591796875t0.450439453125,1.73583984375q0,0.98876953125-0.428466796875,2.0654296875t-1.12060546875,2.098388671875t-1.571044921875,1.834716796875t-1.73583984375,1.20849609375q1.16455078125,1.4501953125,2.384033203125,2.7685546875t2.669677734375,2.48291015625l0,0.50537109375q-0.0439453125,0.2197265625-0.274658203125,0.32958984375t-0.50537109375,0.17578125t-0.538330078125,0.098876953125t-0.439453125,0.032958984375q-1.07666015625,0-2.076416015625-0.63720703125t-1.86767578125-1.56005859375t-1.636962890625-1.95556640625t-1.40625-1.8017578125q0.1318359375,2.52685546875,0.296630859375,5.042724609375t0.164794921875,5.042724609375q0,0.3076171875-0.274658203125,0.516357421875t-0.63720703125,0.318603515625t-0.736083984375,0.15380859375t-0.615234375,0.0439453125q-1.29638671875,0-1.834716796875-0.472412109375t-0.911865234375-1.636962890625z M114.64377441406,51.8759765625q0.54931640625,0,1.307373046875-0.472412109375t1.571044921875-1.175537109375t1.51611328125-1.483154296875t1.131591796875-1.483154296875t0.428466796875-1.131591796875t-0.59326171875-0.384521484375q-0.2197265625,0-0.90087890625,0.63720703125t-1.51611328125,1.56005859375t-1.669921875,1.99951171875t-1.2744140625,1.93359375z M127.92998046875,53.30419921875q0-1.494140625,0.406494140625-2.87841796875t1.219482421875-2.471923828125t2.032470703125-1.73583984375t2.823486328125-0.648193359375q0.98876953125,0,2.186279296875,0.296630859375t2.252197265625,0.87890625t1.7578125,1.483154296875t0.703125,2.0654296875q0,0.54931640625-0.186767578125,0.8349609375t-0.758056640625,0.28564453125l-0.24169921875-0.0439453125q0.63720703125,1.7138671875,1.0986328125,3.515625t0.90087890625,3.603515625q0.17578125,0.3515625,0.263671875,0.626220703125t0.087890625,0.538330078125q0,0.3515625-0.19775390625,0.582275390625t-0.516357421875,0.340576171875t-0.6591796875,0.15380859375t-0.604248046875,0.0439453125q-0.94482421875,0-1.417236328125-0.32958984375t-0.68115234375-0.90087890625t-0.252685546875-1.285400390625t-0.17578125-1.439208984375q-0.263671875,0.85693359375-0.692138671875,1.669921875t-1.0107421875,1.461181640625t-1.373291015625,1.03271484375t-1.77978515625,0.384521484375q-1.4501953125,0-2.43896484375-0.8349609375t-1.593017578125-2.054443359375t-0.87890625-2.603759765625t-0.274658203125-2.57080078125z M131.05009765625,52.99658203125q0,0.81298828125,0.10986328125,1.7138671875t0.362548828125,1.77978515625t0.648193359375,1.658935546875t0.98876953125,1.373291015625q1.07666015625-1.16455078125,1.593017578125-2.83447265625t0.9228515625-3.218994140625t0.9228515625-2.65869140625t1.593017578125-1.109619140625q0.68115234375,0,1.142578125,0.24169921875q-0.2197265625-0.54931640625-0.72509765625-1.065673828125t-1.131591796875-0.94482421875t-1.29638671875-0.703125t-1.263427734375-0.274658203125q-0.17578125,0-0.406494140625,0.054931640625t-0.362548828125,0.010986328125q-0.90087890625,0.263671875-1.483154296875,0.911865234375t-0.94482421875,1.527099609375t-0.516357421875,1.8017578125t-0.15380859375,1.73583984375z M146.97302246094,61.1044921875q0-0.63720703125,0.054931640625-1.34033203125t0.098876953125-1.318359375l0.1318359375-3.2958984375q0.2197265625-3.955078125,0.538330078125-7.7783203125t0.538330078125-7.734375q0.1318359375-2.1533203125,0.19775390625-4.229736328125t0.19775390625-4.229736328125q-0.087890625-0.17578125-0.087890625-0.24169921875q0-0.3076171875,0.230712890625-0.4833984375t0.538330078125-0.296630859375t0.648193359375-0.164794921875t0.516357421875-0.0439453125l0.50537109375,0q0.68115234375,0.087890625,0.98876953125,0.428466796875t0.3955078125,0.81298828125t0.0439453125,1.0107421875t-0.0439453125,0.999755859375q0,3.18603515625-0.15380859375,6.492919921875t-0.3515625,6.6357421875t-0.362548828125,6.65771484375t-0.164794921875,6.580810546875l0,1.5380859375q0,1.03271484375-0.582275390625,1.3623046875t-1.614990234375,0.32958984375q-0.90087890625,0-1.58203125-0.3955078125t-0.68115234375-1.29638671875z M157.05122070312,45.35009765625q0-1.03271484375,0.406494140625-1.527099609375t1.483154296875-0.494384765625q0.63720703125,0,1.197509765625,0.263671875t0.560302734375,1.12060546875q0.087890625,1.25244140625,0.087890625,2.625732421875t0.24169921875,2.603759765625q0.54931640625-0.90087890625,1.241455078125-1.8017578125t1.527099609375-1.60400390625t1.82373046875-1.131591796875t2.1533203125-0.428466796875q1.58203125,0,2.6806640625,0.6591796875t1.812744140625,1.7138671875t1.03271484375,2.384033203125t0.318603515625,2.669677734375q0,2.0654296875-0.626220703125,3.372802734375t-1.658935546875,2.054443359375t-2.340087890625,1.0107421875t-2.625732421875,0.263671875q-1.16455078125,0-2.17529296875-0.450439453125t-1.40625-1.702880859375q0-0.3515625,0.516357421875-0.439453125t0.736083984375-0.087890625q0.72509765625,0,1.07666015625,0.3955078125q0.263671875,0.3076171875,0.582275390625,0.626220703125t0.670166015625,0.318603515625q0.68115234375,0,1.42822265625-0.384521484375t1.373291015625-1.0107421875t1.0546875-1.483154296875t0.428466796875-1.7578125q0-0.76904296875-0.1318359375-1.91162109375t-0.450439453125-2.197265625t-0.87890625-1.82373046875t-1.417236328125-0.76904296875q-1.29638671875,0-2.340087890625,1.1865234375t-1.73583984375,2.8564453125t-1.07666015625,3.4716796875t-0.384521484375,3.01025390625t0.15380859375,3.05419921875t0.318603515625,3.834228515625t0.318603515625,3.834228515625t0.15380859375,3.05419921875q0,0.3076171875-0.252685546875,0.494384765625t-0.604248046875,0.296630859375t-0.714111328125,0.1318359375t-0.538330078125,0.02197265625q-0.59326171875,0-1.241455078125-0.1318359375t-0.889892578125-0.81298828125q-0.3076171875-1.07666015625-0.5712890625-3.065185546875t-0.472412109375-4.39453125t-0.362548828125-5.0537109375t-0.263671875-5.108642578125t-0.164794921875-4.50439453125t-0.054931640625-3.251953125z"/><path fill="#" d=""/></svg>
